<svg xmlns="http://www.w3.org/2000/svg" xmlns:xlink="http://www.w3.org/1999/xlink" viewBox="0 0 113.03 88.7"><defs><style>.cls-1{opacity:0.3;fill:url(#linear-gradient);}.cls-10,.cls-2,.cls-6,.cls-8{fill:none;}.cls-10,.cls-2,.cls-8{stroke:#220a44;}.cls-2,.cls-8{stroke-linecap:round;stroke-linejoin:round;}.cls-2{stroke-width:0.75px;}.cls-3{fill:#220a44;}.cls-4{fill:#e8d9f4;}.cls-5{fill:#fff;}.cls-6{stroke:#fff;stroke-width:0.79px;}.cls-10,.cls-6,.cls-7{stroke-miterlimit:10;}.cls-7,.cls-9{fill:#f9ef7a;}.cls-7{stroke:#f9ef7a;}.cls-8{stroke-width:0.54px;}</style><linearGradient id="linear-gradient" x1="7.48" y1="5.88" x2="113.13" y2="71.95" gradientUnits="userSpaceOnUse"><stop offset="0.13" stop-color="#f9ef7a"/><stop offset="0.9" stop-color="#8ff8ca"/></linearGradient></defs><g id="Layer_2" data-name="Layer 2"><g id="Layer_1-2" data-name="Layer 1"><path class="cls-1" d="M91.59,62.88c13.13,16.08,22.26,26.21,5.73,18-13.94-6.88-38.4,18.32-79.63-18C-4.91,43-9.18,3.38,24.66,16.4,65.44,32.09,140.35-26.34,91.59,62.88Z"/><path class="cls-2" d="M62.5,31.26H59a23,23,0,0,0-4.23-10.21l2.47-2.47a3.55,3.55,0,0,0-5-5L49.76,16a23.13,23.13,0,0,0-10.21-4.24V8.3a3.55,3.55,0,1,0-7.1,0v3.49A23.12,23.12,0,0,0,22.23,16l-2.47-2.47a3.55,3.55,0,0,0-5,5l2.48,2.47A23,23,0,0,0,13,31.26H9.49a3.55,3.55,0,1,0,0,7.1H13a23,23,0,0,0,4.24,10.21L14.74,51a3.55,3.55,0,0,0,5,5l2.47-2.47a23.12,23.12,0,0,0,10.22,4.24v3.48a3.55,3.55,0,0,0,7.1,0V57.83a23.13,23.13,0,0,0,10.21-4.24l2.47,2.47a3.55,3.55,0,0,0,5-5l-2.47-2.47A23,23,0,0,0,59,38.36H62.5a3.55,3.55,0,0,0,0-7.1ZM46.72,40.51a12.21,12.21,0,0,1-7.17,5.91,12.15,12.15,0,0,1-7.1,0,12.17,12.17,0,0,1-7.18-5.91,13.1,13.1,0,0,1-.88-2.15,12.15,12.15,0,0,1,0-7.1,13.1,13.1,0,0,1,.88-2.15,12.26,12.26,0,0,1,5-5,12.1,12.1,0,0,1,2.16-.89,12.15,12.15,0,0,1,7.1,0,12.13,12.13,0,0,1,8.06,8.06,12.15,12.15,0,0,1,0,7.1A12.31,12.31,0,0,1,46.72,40.51Z"/><path class="cls-3" d="M101.58,6.07h-.8a5.34,5.34,0,0,0-1-2.34l.56-.56a.82.82,0,0,0,.24-.58.78.78,0,0,0-.24-.57.81.81,0,0,0-1.15,0l-.56.56a5.35,5.35,0,0,0-2.34-1V.81a.8.8,0,0,0-.24-.57A.8.8,0,0,0,95.52,0a.81.81,0,0,0-.81.81v.8a5.3,5.3,0,0,0-2.34,1L91.8,2a.81.81,0,0,0-1.15,0,.83.83,0,0,0,0,1.15l.57.56a5.24,5.24,0,0,0-1,2.34h-.8a.82.82,0,0,0-.81.81.81.81,0,0,0,.81.81h.8a5.24,5.24,0,0,0,1,2.34l-.57.56a.83.83,0,0,0,0,1.15.81.81,0,0,0,1.15,0l.57-.56a5.19,5.19,0,0,0,2.34,1V13a.81.81,0,1,0,1.62,0v-.8a5.24,5.24,0,0,0,2.34-1l.56.56a.81.81,0,1,0,1.15-1.15L99.82,10a5.34,5.34,0,0,0,1-2.34h.8a.81.81,0,1,0,0-1.62ZM98,8.18a2.72,2.72,0,0,1-1.15,1.15,3,3,0,0,1-.49.21,2.74,2.74,0,0,1-.81.12,2.64,2.64,0,0,1-.81-.12,2.83,2.83,0,0,1-1.65-1.36,2.65,2.65,0,0,1-.2-.49,2.79,2.79,0,0,1,0-1.62,2.65,2.65,0,0,1,.2-.49,2.83,2.83,0,0,1,1.65-1.36,2.64,2.64,0,0,1,.81-.12,2.74,2.74,0,0,1,.81.12,2.68,2.68,0,0,1,.49.21A2.77,2.77,0,0,1,98,5.58a3.61,3.61,0,0,1,.21.49,2.79,2.79,0,0,1,0,1.62A3.61,3.61,0,0,1,98,8.18Z"/><path class="cls-4" d="M74.45,11.9H74a3.11,3.11,0,0,0-.57-1.36l.33-.33a.48.48,0,0,0,.14-.34.47.47,0,0,0-.14-.33.47.47,0,0,0-.67,0l-.33.33a3.11,3.11,0,0,0-1.36-.57V8.83a.5.5,0,0,0-.14-.33.48.48,0,0,0-.34-.14.47.47,0,0,0-.47.47V9.3a3.1,3.1,0,0,0-1.37.57l-.33-.33a.48.48,0,0,0-.34-.14.47.47,0,0,0-.33.14.46.46,0,0,0,0,.67l.33.33a3.11,3.11,0,0,0-.57,1.36h-.46a.48.48,0,0,0-.48.48.48.48,0,0,0,.48.47h.46a3.15,3.15,0,0,0,.57,1.37l-.33.33a.46.46,0,0,0,0,.67.48.48,0,0,0,.67,0l.33-.33a3.1,3.1,0,0,0,1.37.57v.46a.48.48,0,0,0,.47.48.49.49,0,0,0,.48-.48v-.46a3.11,3.11,0,0,0,1.36-.57l.33.33a.48.48,0,0,0,.67,0,.46.46,0,0,0,0-.67l-.33-.33A3.15,3.15,0,0,0,74,12.85h.46a.48.48,0,0,0,.48-.47A.49.49,0,0,0,74.45,11.9Zm-2.11,1.24a1.55,1.55,0,0,1-.67.67,1.39,1.39,0,0,1-.28.12,1.51,1.51,0,0,1-.48.07,1.62,1.62,0,0,1-.76-.19,1.55,1.55,0,0,1-.67-.67,1.62,1.62,0,0,1-.19-.76,1.51,1.51,0,0,1,.07-.48,1.39,1.39,0,0,1,.12-.28,1.55,1.55,0,0,1,.67-.67,1.26,1.26,0,0,1,.29-.12,1.49,1.49,0,0,1,.47-.07,1.51,1.51,0,0,1,.48.07,1.39,1.39,0,0,1,.28.12,1.55,1.55,0,0,1,.67.67,1.39,1.39,0,0,1,.12.28,1.51,1.51,0,0,1,.07.48,1.62,1.62,0,0,1-.19.76Z"/><rect class="cls-4" x="31.64" y="20.72" width="70.51" height="49.1" rx="3.9"/><ellipse class="cls-5" cx="37.75" cy="25.39" rx="1.76" ry="1.6"/><ellipse class="cls-5" cx="42.26" cy="25.39" rx="1.76" ry="1.6"/><ellipse class="cls-5" cx="46.77" cy="25.39" rx="1.76" ry="1.6"/><line class="cls-6" x1="36" y1="29.08" x2="93.18" y2="29.08"/><path class="cls-5" d="M39.35,45.27h.29a3,3,0,0,1,3,3V64.31a0,0,0,0,1,0,0H36.37a0,0,0,0,1,0,0V48.25A3,3,0,0,1,39.35,45.27Z"/><path class="cls-5" d="M49.75,39.65H50a3,3,0,0,1,3,3V64.31a0,0,0,0,1,0,0H46.77a0,0,0,0,1,0,0V42.64A3,3,0,0,1,49.75,39.65Z"/><path class="cls-5" d="M60.43,33.79h.29a3,3,0,0,1,3,3V64.31a0,0,0,0,1,0,0H57.44a0,0,0,0,1,0,0V36.78A3,3,0,0,1,60.43,33.79Z"/><rect class="cls-5" x="70.91" y="33.63" width="22.4" height="24.66" rx="3.8"/><rect class="cls-7" x="84.32" y="42.17" width="28.2" height="46.03" rx="3.07"/><line class="cls-8" x1="96.14" y1="45.51" x2="100.61" y2="45.51"/><circle class="cls-3" cx="101.96" cy="45.51" r="0.45"/><rect class="cls-5" x="87.75" y="70.6" width="21.29" height="1.48" rx="0.74"/><rect class="cls-5" x="87.75" y="74.04" width="21.29" height="1.48" rx="0.74"/><rect class="cls-5" x="87.75" y="77.48" width="21.29" height="1.48" rx="0.74"/><rect class="cls-5" x="87.78" y="80.92" width="21.29" height="1.48" rx="0.74"/><rect class="cls-5" x="84.82" y="47.56" width="27.23" height="21.44"/><path class="cls-9" d="M102.05,59l-4.72,4.72a1,1,0,0,1-.55.28,1.13,1.13,0,0,1-1.26-1.16V53.71a1.13,1.13,0,0,1,1.26-1.16,1,1,0,0,1,.55.28l4.72,4.71A1.05,1.05,0,0,1,102.05,59Z"/><circle class="cls-10" cx="15.71" cy="70.45" r="1.98"/><circle class="cls-4" cx="5.94" cy="5.92" r="1.98"/></g></g></svg>