<svg xmlns="http://www.w3.org/2000/svg" xmlns:xlink="http://www.w3.org/1999/xlink" viewBox="0 0 108.63 82.38"><defs><style>.cls-1{opacity:0.44;fill:url(#linear-gradient);}.cls-2,.cls-5,.cls-7{fill:none;}.cls-2,.cls-7{stroke:#220a44;}.cls-2{stroke-linecap:round;stroke-linejoin:round;stroke-width:0.67px;}.cls-3{fill:#e8d9f4;}.cls-4{fill:#fff;}.cls-5{stroke:#fff;stroke-width:0.79px;}.cls-5,.cls-6,.cls-7{stroke-miterlimit:10;}.cls-6{fill:#f9ef7a;stroke:#f9ef7a;}</style><linearGradient id="linear-gradient" x1="2.92" y1="43.64" x2="100.05" y2="43.64" gradientUnits="userSpaceOnUse"><stop offset="0.13" stop-color="#f9ef7a"/><stop offset="0.9" stop-color="#8ff8ca"/></linearGradient></defs><g id="Layer_2" data-name="Layer 2"><g id="Layer_1-2" data-name="Layer 1"><path class="cls-1" d="M98.08,63c3,27.16-27.42-3.1-38.73,8.9C49.27,82.57,20.52,83.29,10,62.1c-5-10-27.95-65.68,48.94-51.8,6.23,1.13,12.89,6.28,18.62,3.6C112.77-2.58,95.41,39,98.08,63Z"/><path class="cls-2" d="M47.3,24.83a23.49,23.49,0,0,1-47,0A23.47,23.47,0,0,1,40.24,8.07,23.33,23.33,0,0,1,47.3,24.83Z"/><path class="cls-2" d="M40.24,8.07a23.23,23.23,0,0,1-8.65,5.38,23,23,0,0,1-7.77,1.33A23,23,0,0,1,16,13.45,23.31,23.31,0,0,1,7.39,8.07a23.43,23.43,0,0,1,32.85,0Z"/><path class="cls-2" d="M40.24,41.6a23.46,23.46,0,0,1-32.85,0,23.42,23.42,0,0,1,24.2-5.39A23.13,23.13,0,0,1,40.24,41.6Z"/><line class="cls-2" x1="23.82" y1="1.34" x2="23.82" y2="48.32"/><line class="cls-2" x1="0.36" y1="24.83" x2="47.28" y2="24.83"/><ellipse class="cls-2" cx="23.82" cy="24.83" rx="8.89" ry="23.49"/><rect class="cls-3" x="27.22" y="17.05" width="70.51" height="49.1" rx="3.9"/><ellipse class="cls-4" cx="33.34" cy="21.73" rx="1.76" ry="1.6"/><ellipse class="cls-4" cx="37.85" cy="21.73" rx="1.76" ry="1.6"/><ellipse class="cls-4" cx="42.35" cy="21.73" rx="1.76" ry="1.6"/><line class="cls-5" x1="31.58" y1="25.42" x2="88.77" y2="25.42"/><path class="cls-4" d="M34.93,41.6h.29a3,3,0,0,1,3,3V60.65a0,0,0,0,1,0,0H31.95a0,0,0,0,1,0,0V44.58A3,3,0,0,1,34.93,41.6Z"/><path class="cls-4" d="M45.34,36h.29a3,3,0,0,1,3,3V60.65a0,0,0,0,1,0,0H42.35a0,0,0,0,1,0,0V39A3,3,0,0,1,45.34,36Z"/><path class="cls-4" d="M56,30.13h.29a3,3,0,0,1,3,3V60.65a0,0,0,0,1,0,0H53a0,0,0,0,1,0,0V33.11A3,3,0,0,1,56,30.13Z"/><rect class="cls-4" x="66.49" y="29.96" width="22.4" height="24.66" rx="3.8"/><path class="cls-6" d="M108,58.13a2.08,2.08,0,0,0-1.82-1.45l-11.49-1L90.16,45a2.12,2.12,0,0,0-3.89,0L81.72,55.63l-11.5,1a2.1,2.1,0,0,0-1.82,1.45A2.12,2.12,0,0,0,69,60.38L77.71,68,75.15,79.29A2.12,2.12,0,0,0,76,81.48a2.18,2.18,0,0,0,1.24.4,2.13,2.13,0,0,0,1.09-.3l9.91-5.93,9.92,5.93a2.12,2.12,0,0,0,3.15-2.29L98.72,68l8.69-7.62A2.11,2.11,0,0,0,108,58.13Z"/><circle class="cls-7" cx="94.29" cy="3.21" r="1.98"/><circle class="cls-3" cx="59.35" cy="11.32" r="1.98"/><path class="cls-3" d="M17.12,66.55c2.67-.26,3.82-1.68,3.53-4.19,0-.27.5-.37.53-.09q.38,3.88,4.35,3.37c.27,0,.33.5.06.56a4.34,4.34,0,0,0-3.67,4.51c0,.26-.48.3-.53,0a4.08,4.08,0,0,0-4.26-3.66C16.85,67.09,16.84,66.58,17.12,66.55Z"/><path class="cls-3" d="M4.92,4.45C7.59,4.18,8.74,2.77,8.45.26,8.42,0,9-.11,9,.17c.25,2.59,1.7,3.7,4.34,3.37.28,0,.34.49.07.56A4.31,4.31,0,0,0,9.72,8.61c0,.26-.48.3-.53,0A4.08,4.08,0,0,0,4.93,5C4.65,5,4.64,4.48,4.92,4.45Z"/></g></g></svg>