<svg xmlns="http://www.w3.org/2000/svg" xmlns:xlink="http://www.w3.org/1999/xlink" viewBox="0 0 113.25 84.63"><defs><style>.cls-1{opacity:0.3;fill:url(#linear-gradient);}.cls-2{fill:#e8d9f4;}.cls-3{fill:#fff;}.cls-4,.cls-7,.cls-8{fill:none;}.cls-4{stroke:#fff;stroke-width:0.75px;}.cls-4,.cls-8{stroke-miterlimit:10;}.cls-5{fill:#85f9d2;}.cls-6{fill:#220a44;}.cls-7,.cls-8{stroke:#220a44;}.cls-7{stroke-linecap:round;stroke-linejoin:round;stroke-dasharray:2.02 2.02;}</style><linearGradient id="linear-gradient" x1="83.36" y1="63.49" x2="9.15" y2="12.43" gradientUnits="userSpaceOnUse"><stop offset="0.13" stop-color="#f9ef7a"/><stop offset="0.9" stop-color="#8ff8ca"/></linearGradient></defs><g id="Layer_2" data-name="Layer 2"><g id="Layer_1-2" data-name="Layer 1"><path class="cls-1" d="M91.93,35.74s10.88,51.64-46.64,46.78S41.65,71,8.05,48C-10.69,35.25,6.7-10.23,25.56,3.46,65,32.07,120-8.68,91.93,35.74Z"/><rect class="cls-2" x="22.81" y="16.77" width="64.07" height="49.1" rx="3.72"/><circle class="cls-3" cx="28.37" cy="21.45" r="1.6"/><circle class="cls-3" cx="32.47" cy="21.45" r="1.6"/><circle class="cls-3" cx="36.57" cy="21.45" r="1.6"/><line class="cls-4" x1="26.78" y1="25.14" x2="78.74" y2="25.14"/><rect class="cls-3" x="28.37" y="35.71" width="22.4" height="24.66" rx="3.8"/><path class="cls-3" d="M60.67,41.32h0a2.84,2.84,0,0,1,2.84,2.84v16.2a0,0,0,0,1,0,0H57.82a0,0,0,0,1,0,0V44.17a2.84,2.84,0,0,1,2.84-2.84Z"/><path class="cls-3" d="M69,35.71h0a2.84,2.84,0,0,1,2.84,2.84V60.37a0,0,0,0,1,0,0H66.14a0,0,0,0,1,0,0V38.55A2.84,2.84,0,0,1,69,35.71Z"/><path class="cls-3" d="M77.08,29.85h0a2.84,2.84,0,0,1,2.84,2.84V60.37a0,0,0,0,1,0,0H74.24a0,0,0,0,1,0,0V32.69A2.84,2.84,0,0,1,77.08,29.85Z"/><path class="cls-5" d="M77.49,73l22.05,0c1.88.21-1.29-52.47-10.92-53.44C80.43,18.82,75.75,66.63,77.49,73Z"/><path class="cls-6" d="M88.58,63.2h0a.53.53,0,0,1,.53.53V84a0,0,0,0,1,0,0H88.05a0,0,0,0,1,0,0V63.72a.53.53,0,0,1,.53-.53Z" transform="translate(0.17 -0.2) rotate(0.13)"/><path class="cls-6" d="M88.58,14.48h0a.53.53,0,0,1,.53.53v4.54a0,0,0,0,1,0,0H88.05a0,0,0,0,1,0,0V15A.53.53,0,0,1,88.58,14.48Z" transform="matrix(1, 0, 0, 1, 0.04, -0.2)"/><path class="cls-6" d="M107.11,84.16l-7.79-.27.29-20.79C103.61,66.8,106.57,72.77,107.11,84.16Z"/><path class="cls-6" d="M69.47,84.08l7.79-.24-.21-20.79C73,66.73,70.05,72.69,69.47,84.08Z"/><ellipse class="cls-6" cx="88.65" cy="35.73" rx="3.37" ry="3.66"/><path class="cls-7" d="M38.15,65.87S36.24,71.32,45,71.32h8.72s2.64,0,2.64,2.31-1,2.65-2.64,2.65H30.75s-4-.17-4.1,3.14.11,4.53,3.41,4.66,39.41,0,39.41,0l1.79-2.35"/><circle class="cls-8" cx="6.5" cy="13.03" r="1.98"/><circle class="cls-8" cx="94.8" cy="5.1" r="1.98"/><path class="cls-2" d="M12.11,69.28c2.67-.27,3.83-1.69,3.53-4.19,0-.28.51-.38.53-.1.25,2.59,1.71,3.71,4.35,3.37.28,0,.34.5.06.56a4.34,4.34,0,0,0-3.67,4.51c0,.26-.48.3-.53,0a4.08,4.08,0,0,0-4.25-3.67C11.85,69.81,11.84,69.3,12.11,69.28Z"/><path class="cls-2" d="M105.49,33.91c2.41.37,3.75-.61,4.06-2.88,0-.25.53-.21.49,0q-.56,3.49,3,4c.25,0,.18.51-.07.5a3.94,3.94,0,0,0-4.26,3.13c-.07.23-.49.15-.48-.09a3.71,3.71,0,0,0-2.9-4.19C105.14,34.31,105.24,33.87,105.49,33.91Z"/><path class="cls-2" d="M44.05,2.42c1.77.17,2.63-.61,2.61-2.28,0-.19.36-.18.35,0a2.48,2.48,0,0,0,2.63,2.77c.18,0,.18.37,0,.37a2.58,2.58,0,0,0-2.73,2.48c0,.17-.34.14-.35,0A3,3,0,0,0,44,2.78C43.83,2.74,43.86,2.4,44.05,2.42Z"/></g></g></svg>